<?xml version="1.0" encoding="UTF-8" standalone="no"?>
<svg
   xmlns:dc="http://purl.org/dc/elements/1.1/"
   xmlns:cc="http://creativecommons.org/ns#"
   xmlns:rdf="http://www.w3.org/1999/02/22-rdf-syntax-ns#"
   xmlns:svg="http://www.w3.org/2000/svg"
   xmlns="http://www.w3.org/2000/svg"
   xmlns:sodipodi="http://sodipodi.sourceforge.net/DTD/sodipodi-0.dtd"
   xmlns:inkscape="http://www.inkscape.org/namespaces/inkscape"
   version="1.1"
   x="0px"
   y="0px"
   viewBox="0 0 54 98"
   enable-background="new 0 0 100 100"
   xml:space="preserve"
   id="svg2"
   inkscape:version="0.48.2 r9819"
   width="100%"
   height="100%"
   sodipodi:docname="noun_61961_cc.svg"><metadata
     id="metadata26"><rdf:RDF><cc:Work
         rdf:about=""><dc:format>image/svg+xml</dc:format><dc:type
           rdf:resource="http://purl.org/dc/dcmitype/StillImage" /></cc:Work></rdf:RDF></metadata><defs
     id="defs24" /><sodipodi:namedview
     pagecolor="#ffffff"
     bordercolor="#666666"
     borderopacity="1"
     objecttolerance="10"
     gridtolerance="10"
     guidetolerance="10"
     inkscape:pageopacity="0"
     inkscape:pageshadow="2"
     inkscape:window-width="640"
     inkscape:window-height="480"
     id="namedview22"
     showgrid="false"
     inkscape:zoom="1.888"
     inkscape:cx="50"
     inkscape:cy="62.5"
     inkscape:window-x="0"
     inkscape:window-y="0"
     inkscape:window-maximized="0"
     inkscape:current-layer="svg2" /><g
     id="g4"
     transform="translate(-28.190678,-1.457627)"><path
       d="m 66.2,71.5 c -0.6,0.1 -0.7,-1.3 -0.5,-1.8 1.6,-5 -1.3,-25 -8.6,-36.7 -0.2,-0.4 1.2,-0.7 1.4,-0.4 7.6,10.3 12.9,38.2 7.7,38.9 z"
       id="path6"
       inkscape:connector-curvature="0" /></g><path
     d="m 27.709322,10.042373 c 5.1,6.8 0,18.6 0,18.6 0,0 -13.4,0.8 -18.5,-5.9 -5.0999999,-6.7 -4.2999999,-21.1 -4.2999999,-21.1 0,0 17.6999999,1.6 22.7999999,8.4 z"
     id="path8"
     inkscape:connector-curvature="0" /><path
     d="m 45.909322,26.842373 c -5.4,4.1 -14.2,2.9 -14.2,2.9 0,0 -0.1,-7.7 5.3,-11.8 5.4,-4.1 14.2,-2.9 14.2,-2.9 0,0 0.1,7.7 -5.3,11.8 z"
     id="path10"
     inkscape:connector-curvature="0" /><path
     d="m 14.909322,28.742373 c 7.3,-0.1 12.8,7.299998 12.8,7.299998 0,0 -6.2,7.5 -13.4,7.5 -7.1999999,0 -12.7999999,-7.3 -12.7999999,-7.3 0,0 6.1,-7.499998 13.3999999,-7.499998 z"
     id="path12"
     inkscape:connector-curvature="0" /><g
     id="g14"
     transform="translate(-28.190678,-1.457627)"><path
       d="m 67.8,70.6 c -0.1,0 -0.2,0 -0.3,-0.1 0,0.1 -0.2,1.9 -0.3,2.4 -0.1,0.5 -0.2,1.1 -0.4,1.7 -0.2,0.6 -0.4,1.3 -0.7,1.9 -0.3,0.7 -0.6,1.4 -1,2.1 -0.4,0.7 -0.9,1.4 -1.5,2.1 -0.6,0.7 -1.3,1.3 -2.1,1.9 -1.6,1.2 -3.5,1.9 -5,2.6 -0.8,0.4 -1.5,0.8 -1.9,1.3 -0.5,0.5 -0.7,1.1 -0.9,1.7 -0.1,0.6 -0.2,1.1 -0.2,1.6 0,0.5 0.1,0.9 0.1,1.3 0.1,0.7 0.2,1.1 0.2,1.1 0,0 -0.1,-0.4 -0.3,-1.1 -0.1,-0.3 -0.2,-0.8 -0.3,-1.3 -0.1,-0.5 -0.1,-1.1 0,-1.7 0.1,-0.6 0.3,-1.3 0.8,-1.9 0.5,-0.6 1.2,-1.2 2,-1.6 1.6,-0.9 3.2,-1.7 4.5,-2.8 0.6,-0.6 1.2,-1.2 1.6,-1.8 2.2,-2.9 3.2,-4.1 3.6,-8 0,-0.7 0.1,-1.9 0.1,-1.9 l 1.8,0.4 c -6.3,-2 -14.6,2.1 -18.7,9.4 -4.2,7.5 -2.5,15.4 3.8,17.8 6.3,2.4 14.9,-1.8 19.2,-9.2 4,-7.6 2.3,-15.6 -4.1,-17.9 z"
       id="path16"
       inkscape:connector-curvature="0" /></g></svg>