<?xml version="1.0" encoding="utf-8"?>
<!-- Generator: Adobe Illustrator 18.1.1, SVG Export Plug-In . SVG Version: 6.00 Build 0)  -->
<svg version="1.1" id="Layer_1" xmlns="http://www.w3.org/2000/svg" xmlns:xlink="http://www.w3.org/1999/xlink" x="0px" y="0px"
	 viewBox="0 0 800 800" enable-background="new 0 0 800 800" xml:space="preserve">
<polygon id="XMLID_2_" fill="#999999" points="390.3,85.5 390.3,524.3 368,524.3 368,14.7 369.8,14.7 "/>
<polygon fill="#999999" points="389.3,82.5 389.3,521.3 344.8,521.3 344.8,84.5 345.8,81.5 367,17.1 368,14.1 368.8,11.7 
	369.7,14.7 "/>
<rect x="291.7" y="516.3" fill="#FBAE17" width="150.6" height="22.9"/>
<polygon fill="#666666" points="368,13.1 368,517.3 345.8,517.3 345.8,80.5 "/>
<polygon fill="#603813" points="390.9,663.3 345.2,663.3 345.6,658.3 345.9,655.8 356.6,539.2 379.5,539.2 390.4,658.3 "/>
<polygon fill="#C69C6D" points="366.6,539.2 366.6,655.8 345.9,655.8 356.6,539.2 "/>
<polygon fill="#C69C6D" points="356.9,539.2 356.9,658.3 345.6,658.3 345.9,655.8 356.6,539.2 "/>
<polygon fill="#603813" points="390.4,658.3 379.5,658.3 379.5,539.2 "/>
<path fill="#42210B" d="M404.4,687.1c0,18.4-13.2,33.6-30.7,36.8c0,0,0,0,0,0c-2.2,0.4-4.4,0.6-6.6,0.6c-3.2,0-6.3-0.4-9.2-1.2
	c-7.8-2-14.5-6.4-19.5-12.4c-5.4-6.5-8.6-14.8-8.6-23.8c0-7.9,2.4-15.2,6.6-21.2c0,0,0,0,0,0c2.6-3.7,5.8-7,9.5-9.5c0,0,0,0,0,0
	c6-4.2,13.3-6.6,21.2-6.6c8.8,0,17,3.1,23.4,8.2C398.9,664.8,404.4,675.3,404.4,687.1z"/>
<path fill="#FBAE17" d="M319,527.8c0,4.1-0.9,8-2.5,11.4c-4.3,9.4-13.8,15.8-24.8,15.8c-3.9,0-7.6-0.8-10.9-2.3
	c-9.6-4.2-16.3-13.8-16.3-25c0-10.1,5.5-18.9,13.6-23.6l0,0c4-2.3,8.7-3.7,13.6-3.7c11,0,20.4,6.5,24.8,15.8
	C318.1,519.8,319,523.7,319,527.8z"/>
<path fill="#FBAE17" d="M469.6,527.8c0,7.6-3.1,14.4-8,19.3c-4.9,4.9-11.7,7.9-19.2,7.9c-11,0-20.4-6.5-24.8-15.8
	c-1.6-3.5-2.5-7.4-2.5-11.4c0-4.1,0.9-8,2.5-11.4c4.3-9.4,13.8-15.8,24.8-15.8h0c5,0,9.6,1.3,13.6,3.7c0,0,0,0,0,0
	C464.1,508.9,469.6,517.7,469.6,527.8z"/>
<polygon fill="#999999" points="368.8,11.7 368.6,14.7 368,20.3 349.7,81.7 350.3,515.7 344.8,515.7 344.8,84.5 345.8,81.5 
	345.8,80.5 368,13.1 368,14.1 "/>
<polygon fill="#999999" points="351.7,95.7 365,82.3 365,95.7 351.7,107.7 "/>
<polygon fill="#999999" points="351.7,130.3 365,117 365,130.3 351.7,142.3 "/>
<polygon fill="#999999" points="351.7,161 365,147.7 365,161 351.7,173 "/>
<path fill="#FBAE17" d="M366.6,516.3v22.9h-50.1c-4.3,9.4-13.8,15.8-24.8,15.8c-3.9,0-7.6-0.8-10.9-2.3c-9.6-4.2-16.3-13.8-16.3-25
	c0-10.1,5.5-18.9,13.6-23.6l0,0c4-2.3,8.7-3.7,13.6-3.7c11,0,20.4,6.5,24.8,15.8H366.6z"/>
<path fill="#FBAE17" d="M469.6,527.8c0,7.6-3.1,14.4-8,19.3c-4.9,4.9-11.7,7.9-19.2,7.9c-11,0-20.4-6.5-24.8-15.8H367v-22.9h50.5
	c4.3-9.4,13.8-15.8,24.8-15.8h0c5,0,9.6,1.3,13.6,3.7c0,0,0,0,0,0C464.1,508.9,469.6,517.7,469.6,527.8z"/>
<path fill="#42210B" d="M404.4,687.1c0,18.4-13.2,33.6-30.7,36.8c0,0,0,0,0,0c-2.2,0.4-4.4,0.6-6.6,0.6v-74.7
	C387.7,649.7,404.4,666.4,404.4,687.1z"/>
<path fill="#42210B" d="M357.8,723.3c-7.8-2-14.5-6.4-19.5-12.4c-5.4-6.5-8.6-14.8-8.6-23.8c0-7.9,2.4-15.2,6.6-21.2c0,0,0,0,0,0
	c2.6-3.7,5.8-7,9.5-9.5C345.1,662.4,339.7,714,357.8,723.3z"/>
<path fill="#42210B" d="M373.7,723.8c-2.2,0.4-4.4,0.6-6.6,0.6C370.3,723.8,372.4,723.7,373.7,723.8z"/>
<path fill="#42210B" d="M338.3,710.9c-5.4-6.5-8.6-14.8-8.6-23.8c0-7.9,2.4-15.2,6.6-21.2C336.3,666.5,335.2,693.8,338.3,710.9z"/>
<path fill="#42210B" d="M345.5,724.4c0.8-0.1,1.3-0.1,1.7-0.2c-0.3,0-0.7,0.1-1.3,0.1C345.7,724.4,345.6,724.4,345.5,724.4z"/>
<path fill="#FBAE17" d="M291.7,500.5V555c-3.9,0-7.6-0.8-10.9-2.3c-9.6-4.2-16.3-13.8-16.3-25c0-10.1,5.5-18.9,13.6-23.6l0,0
	C282.1,501.8,286.8,500.5,291.7,500.5z"/>
<path fill="#FBAE17" d="M469.6,527.8c0,7.6-3.1,14.4-8,19.3c-4.9,4.9-11.7,7.9-19.2,7.9v-15.8l0-22.9v-15.8h0c5,0,9.6,1.3,13.6,3.7
	c0,0,0,0,0,0C464.1,508.9,469.6,517.7,469.6,527.8z"/>
<path fill="#FBAE17" d="M280.8,552.8c-9.6-4.2-16.3-13.8-16.3-25c0-10.1,5.5-18.9,13.6-23.6l0,0
	C278.1,504.1,272.6,546.5,280.8,552.8z"/>
<path fill="#FBAE17" d="M461.6,547.1c2.4-16.7-5.4-42.3-5.6-43c8.2,4.7,13.6,13.5,13.6,23.6C469.6,535.3,466.5,542.2,461.6,547.1z"
	/>
</svg>
