<?xml version="1.0" encoding="utf-8"?>
<!-- Svg Vector Icons : http://www.onlinewebfonts.com/icon -->
<!DOCTYPE svg PUBLIC "-//W3C//DTD SVG 1.1//EN" "http://www.w3.org/Graphics/SVG/1.1/DTD/svg11.dtd">
<svg version="1.1" xmlns="http://www.w3.org/2000/svg" xmlns:xlink="http://www.w3.org/1999/xlink" x="0px" y="0px" viewBox="0 0 1000 1000" enable-background="new 0 0 1000 1000" xml:space="preserve">
<metadata> Svg Vector Icons : http://www.onlinewebfonts.com/icon </metadata>
<g><g><g id="c110_arrows"><path d="M984.3,483.6c-18.7-18.6-196.2-190.6-196.2-190.6s-23.7-23.8-23.7,7.7c0,31.7,0,81.9,0,81.9H235.6c0,0,0-50.3,0-81.9c0-31.5-23.7-7.7-23.7-7.7S34.3,465,15.7,483.6c-13.6,13.6,1.6,26.4,1.6,26.4l190.1,195.5c0,0,22.6,23.9,22.6-2.1c-0.1-26,0-88.6,0-88.6h540c0,0,0,62.8,0,88.6c0,26,22.7,2,22.7,2l190.2-195.3C982.8,510.1,997.9,497.3,984.3,483.6z"/></g><g id="Capa_1_136_"></g></g><g></g><g></g><g></g><g></g><g></g><g></g><g></g><g></g><g></g><g></g><g></g><g></g><g></g><g></g><g></g></g>
</svg>